<?xml version="1.0" standalone="no"?>
<!DOCTYPE svg PUBLIC "-//W3C//DTD SVG 20010904//EN"
 "http://www.w3.org/TR/2001/REC-SVG-20010904/DTD/svg10.dtd">
<svg version="1.0" xmlns="http://www.w3.org/2000/svg"
 width="180.000000pt" height="180.000000pt" viewBox="0 0 180.000000 180.000000"
 preserveAspectRatio="xMidYMid meet">
<metadata>
Created by potrace 1.11, written by Peter Selinger 2001-2013
</metadata>
<g transform="translate(0.000000,180.000000) scale(0.100000,-0.100000)"
fill="#000000" stroke="none">
<path d="M780 1658 c-74 -29 -151 -107 -180 -185 -46 -121 -19 -251 71 -342
28 -28 54 -51 60 -51 5 0 9 -103 9 -260 l0 -260 50 0 50 0 0 -132 c-1 -101 -4
-138 -15 -152 -8 -11 -15 -37 -15 -57 0 -29 7 -43 31 -63 51 -43 115 -31 143
28 15 32 15 39 1 72 -11 26 -15 73 -15 170 l0 134 50 0 50 0 0 256 0 256 48
43 c26 24 61 69 77 101 26 51 29 68 29 144 -1 79 -4 92 -32 141 -39 66 -57 87
-102 120 -81 60 -210 75 -310 37z"/>
</g>
</svg>
